<svg xmlns="http://www.w3.org/2000/svg" viewBox="52.21 98.72 105.89 24.38">
<path d="M52.71,99.78L52.71,111.86L61.51,111.86L61.51,108.41L56.33,108.41L56.33,107.16L61.08,107.16L61.08,104.40L56.33,104.40L56.33,103.23L61.51,103.23L61.51,99.78" fill="#030404" stroke-linecap="round" stroke-linejoin="round"/>
<path d="M77.46,104.60C77.84,104.60 78.13,104.29 78.13,103.93C78.13,103.56 77.84,103.27 77.46,103.27L76.10,103.27L76.10,104.60L77.46,104.60M72.49,99.78L77.61,99.78C79.89,99.78 81.76,101.64 81.76,103.93C81.76,105.20 81.18,106.33 80.29,107.09L83.63,111.86L79.31,111.86L76.50,107.86L76.10,107.86L76.10,111.86L72.49,111.86" fill="#030404" stroke-linecap="round" stroke-linejoin="round"/>
<path d="M85.28,103.23L82.29,103.23L82.29,99.78L91.86,99.78L91.86,103.23L88.90,103.23L88.90,111.86L85.28,111.86" fill="#030404" stroke-linecap="round" stroke-linejoin="round"/>
<path d="M92.50,99.78L96.13,99.78L96.13,104.05L99.75,104.05L99.75,99.78L103.37,99.78L103.37,111.86L99.75,111.86L99.75,107.50L96.13,107.50L96.13,111.86L92.50,111.86" fill="#030404" stroke-linecap="round" stroke-linejoin="round"/>
<path d="M109.56,108.41C109.90,108.41 110.18,108.14 110.18,107.79C110.18,107.43 109.90,107.16 109.56,107.16L107.68,107.16L107.68,108.41L109.56,108.41M109.03,104.40C109.36,104.40 109.61,104.14 109.61,103.81C109.61,103.49 109.36,103.23 109.03,103.23L107.68,103.23L107.68,104.40L109.03,104.40M104.06,99.78L109.73,99.78C111.76,99.78 113.42,101.43 113.42,103.47C113.42,104.19 113.20,104.88 112.84,105.44C113.54,106.13 113.99,107.07 113.99,108.14C113.99,110.19 112.31,111.86 110.25,111.86L104.06,111.86" fill="#030404" stroke-linecap="round" stroke-linejoin="round"/>
<path d="M148.81,99.78L157.61,99.78L157.61,103.23L152.43,103.23L152.43,104.40L157.18,104.40L157.18,107.16L152.43,107.16L152.43,108.41L157.61,108.41L157.61,111.86L148.81,111.86" fill="#030404" stroke-linecap="round" stroke-linejoin="round"/>
<path d="M66.41,108.17L67.01,106.47L67.63,108.17L66.41,108.17M67.02,99.00L61.03,111.86L65.13,111.86L65.45,110.93L68.59,110.93L68.92,111.86L73.02,111.86" fill="#030404" stroke-linecap="round" stroke-linejoin="round"/>
<path d="M125.80,104.40L125.80,104.40L125.80,104.40C124.39,104.40 123.25,103.25 123.25,101.85C123.25,101.34 123.40,100.86 123.66,100.47C122.74,99.93 121.68,99.61 120.54,99.61C117.11,99.61 114.33,102.39 114.33,105.82C114.33,109.25 117.11,112.03 120.54,112.03C123.97,112.03 126.74,109.25 126.74,105.82C126.74,105.29 126.67,104.78 126.54,104.29C126.31,104.36 126.06,104.40 125.80,104.40" fill="#030404" stroke-linecap="round" stroke-linejoin="round"/>
<path d="M132.36,104.60L131.01,104.60L131.01,103.27L132.36,103.27C132.74,103.27 133.03,103.56 133.03,103.93C133.03,104.29 132.74,104.60 132.36,104.60M135.19,107.09C136.08,106.33 136.67,105.20 136.67,103.93C136.67,101.64 134.80,99.78 132.52,99.78L127.29,99.78C127.93,100.25 128.35,101.00 128.35,101.85C128.35,102.65 127.98,103.37 127.39,103.84L127.39,111.86L131.01,111.86L131.01,107.86L131.40,107.86L134.21,111.86L138.54,111.86" fill="#030404" stroke-linecap="round" stroke-linejoin="round"/>
<path d="M148.16,99.78L144.53,99.78L144.53,105.02L137.63,99.22L137.63,111.86L141.25,111.86L141.25,106.64L148.16,112.44" fill="#030404" stroke-linecap="round" stroke-linejoin="round"/>
<path d="M56.16,117.67C57.34,117.67 58.28,116.74 58.28,115.57C58.28,114.41 57.34,113.47 56.16,113.47L53.30,113.47L53.30,117.67L56.16,117.67M52.71,112.92L56.22,112.92C57.68,112.92 58.87,114.11 58.87,115.57C58.87,116.84 57.96,117.89 56.75,118.10L59.72,122.34L59.01,122.34L56.11,118.21L53.30,118.21L53.30,122.34L52.71,122.34" fill="#030404" stroke-linecap="round" stroke-linejoin="round"/>
<path d="M74.33,119.38L71.99,113.89L69.65,119.38L74.33,119.38M71.94,112.70L72.04,112.70L76.24,122.34L75.60,122.34L74.57,119.92L69.42,119.92L68.38,122.34L67.74,122.34" fill="#030404" stroke-linecap="round" stroke-linejoin="round"/>
<path d="M85.62,114.13L85.62,122.34L85.05,122.34L85.05,112.70L85.14,112.70L91.48,121.19L91.48,112.92L92.04,112.92L92.04,122.59L91.93,122.59" fill="#030404" stroke-linecap="round" stroke-linejoin="round"/>
<path d="M101.65,117.63C101.65,114.94 103.83,112.79 106.49,112.79C108.22,112.79 109.82,113.71 110.69,115.21L110.17,115.50C109.43,114.21 108.07,113.31 106.49,113.31C104.14,113.31 102.25,115.25 102.25,117.63C102.25,120.02 104.14,121.95 106.49,121.95C108.74,121.95 110.57,120.20 110.69,117.97L106.49,117.97L106.49,117.54L111.31,117.54L111.31,117.70C111.28,120.35 109.12,122.49 106.49,122.49C103.83,122.49 101.65,120.32 101.65,117.63" fill="#030404" stroke-linecap="round" stroke-linejoin="round"/>
<path d="M120.67,112.92L126.02,112.92L126.02,113.47L121.27,113.47L121.27,117.12L125.62,117.12L125.62,117.59L121.27,117.59L121.27,121.80L126.02,121.80L126.02,122.34L120.67,122.34" fill="#030404" stroke-linecap="round" stroke-linejoin="round"/>
<path d="M138.64,117.67C139.81,117.67 140.75,116.74 140.75,115.57C140.75,114.41 139.81,113.47 138.64,113.47L135.77,113.47L135.77,117.67L138.64,117.67M135.18,112.92L138.69,112.92C140.15,112.92 141.34,114.11 141.34,115.57C141.34,116.84 140.43,117.89 139.22,118.10L142.19,122.34L141.48,122.34L138.58,118.21L135.77,118.21L135.77,122.34L135.18,122.34" fill="#030404" stroke-linecap="round" stroke-linejoin="round"/>
<path d="M150.60,120.55L151.09,120.24C151.45,121.36 152.90,121.92 154.02,121.92C155.38,121.92 157.00,121.28 157.00,119.96C157.00,118.94 156.00,118.49 155.04,118.21L152.82,117.56C151.72,117.24 150.84,116.59 150.84,115.37C150.84,113.82 152.43,112.83 154.07,112.83C155.30,112.83 156.60,113.28 157.27,114.30L156.79,114.65C156.24,113.77 155.08,113.37 154.07,113.37C152.92,113.37 151.47,114.06 151.47,115.36C151.47,116.31 152.15,116.77 153.04,117.03L155.30,117.67C156.51,118.02 157.60,118.58 157.60,119.92C157.60,121.56 155.79,122.49 154.05,122.49C152.66,122.49 151.06,121.87 150.60,120.55" fill="#030404" stroke-linecap="round" stroke-linejoin="round"/>
</svg>